<svg width="27" height="27" viewBox="0 0 27 27" fill="none" xmlns="http://www.w3.org/2000/svg">
<path d="M13.3334 9.86112V7.08334H6.38892V19.5833H20.2778V9.86112H13.3334ZM9.16669 18.1945H7.7778V16.8056H9.16669V18.1945ZM9.16669 15.4167H7.7778V14.0278H9.16669V15.4167ZM9.16669 12.6389H7.7778V11.25H9.16669V12.6389ZM9.16669 9.86112H7.7778V8.47223H9.16669V9.86112ZM11.9445 18.1945H10.5556V16.8056H11.9445V18.1945ZM11.9445 15.4167H10.5556V14.0278H11.9445V15.4167ZM11.9445 12.6389H10.5556V11.25H11.9445V12.6389ZM11.9445 9.86112H10.5556V8.47223H11.9445V9.86112ZM18.8889 18.1945H13.3334V16.8056H14.7222V15.4167H13.3334V14.0278H14.7222V12.6389H13.3334V11.25H18.8889V18.1945ZM17.5 12.6389H16.1111V14.0278H17.5V12.6389ZM17.5 15.4167H16.1111V16.8056H17.5V15.4167Z" fill="#5C5C5C"/>
</svg>
