<svg width="27" height="27" viewBox="0 0 27 27" fill="none" xmlns="http://www.w3.org/2000/svg">
<g clip-path="url(#clip0_1_3905)">
<path d="M13.3264 6.72247C9.49308 6.72247 6.38892 9.83358 6.38892 13.6669C6.38892 17.5003 9.49308 20.6114 13.3264 20.6114C17.1667 20.6114 20.2778 17.5003 20.2778 13.6669C20.2778 9.83358 17.1667 6.72247 13.3264 6.72247ZM18.1389 10.8891H16.0903C15.8681 10.0211 15.5486 9.18775 15.132 8.41692C16.4097 8.85442 17.4722 9.74331 18.1389 10.8891ZM13.3334 8.13914C13.9097 8.97247 14.3611 9.89608 14.6597 10.8891H12.007C12.3056 9.89608 12.757 8.97247 13.3334 8.13914ZM7.95836 15.0558C7.84725 14.6114 7.7778 14.1461 7.7778 13.6669C7.7778 13.1878 7.84725 12.7225 7.95836 12.278H10.3056C10.25 12.7364 10.2084 13.1947 10.2084 13.6669C10.2084 14.1391 10.25 14.5975 10.3056 15.0558H7.95836ZM8.5278 16.4447H10.5764C10.7986 17.3128 11.1181 18.1461 11.5347 18.9169C10.257 18.4794 9.19447 17.5975 8.5278 16.4447ZM10.5764 10.8891H8.5278C9.19447 9.73636 10.257 8.85442 11.5347 8.41692C11.1181 9.18775 10.7986 10.0211 10.5764 10.8891ZM13.3334 19.1947C12.757 18.3614 12.3056 17.4378 12.007 16.4447H14.6597C14.3611 17.4378 13.9097 18.3614 13.3334 19.1947ZM14.9584 15.0558H11.7084C11.6459 14.5975 11.5972 14.1391 11.5972 13.6669C11.5972 13.1947 11.6459 12.7294 11.7084 12.278H14.9584C15.0209 12.7294 15.0695 13.1947 15.0695 13.6669C15.0695 14.1391 15.0209 14.5975 14.9584 15.0558ZM15.132 18.9169C15.5486 18.1461 15.8681 17.3128 16.0903 16.4447H18.1389C17.4722 17.5905 16.4097 18.4794 15.132 18.9169ZM16.3611 15.0558C16.4167 14.5975 16.4584 14.1391 16.4584 13.6669C16.4584 13.1947 16.4167 12.7364 16.3611 12.278H18.7084C18.8195 12.7225 18.8889 13.1878 18.8889 13.6669C18.8889 14.1461 18.8195 14.6114 18.7084 15.0558H16.3611Z" fill="#5C5C5C"/>
</g>
<defs>
<clipPath id="clip0_1_3905">
<rect width="16.6667" height="16.6667" fill="white" transform="translate(5 5.33331)"/>
</clipPath>
</defs>
</svg>
