<svg width="27" height="27" viewBox="0 0 27 27" fill="none" xmlns="http://www.w3.org/2000/svg">
<path d="M13.3333 6.72223C10.6458 6.72223 8.47223 8.89584 8.47223 11.5833C8.47223 15.2292 13.3333 20.6111 13.3333 20.6111C13.3333 20.6111 18.1945 15.2292 18.1945 11.5833C18.1945 8.89584 16.0208 6.72223 13.3333 6.72223ZM9.86112 11.5833C9.86112 9.66667 11.4167 8.11112 13.3333 8.11112C15.25 8.11112 16.8056 9.66667 16.8056 11.5833C16.8056 13.5833 14.8056 16.5764 13.3333 18.4445C11.8889 16.5903 9.86112 13.5625 9.86112 11.5833Z" fill="#5C5C5C"/>
<path d="M13.3333 13.3195C14.2922 13.3195 15.0695 12.5422 15.0695 11.5833C15.0695 10.6245 14.2922 9.84723 13.3333 9.84723C12.3745 9.84723 11.5972 10.6245 11.5972 11.5833C11.5972 12.5422 12.3745 13.3195 13.3333 13.3195Z" fill="#5C5C5C"/>
</svg>
