<svg width="20" height="21" viewBox="0 0 20 21" fill="none" xmlns="http://www.w3.org/2000/svg">
<path d="M15 13.6C14.3667 13.6 13.8 13.85 13.3667 14.2417L7.425 10.7833C7.46667 10.5917 7.5 10.4 7.5 10.2C7.5 9.99999 7.46667 9.80832 7.425 9.61665L13.3 6.19165C13.75 6.60832 14.3417 6.86665 15 6.86665C16.3833 6.86665 17.5 5.74999 17.5 4.36665C17.5 2.98332 16.3833 1.86665 15 1.86665C13.6167 1.86665 12.5 2.98332 12.5 4.36665C12.5 4.56665 12.5333 4.75832 12.575 4.94999L6.7 8.37499C6.25 7.95832 5.65833 7.69999 5 7.69999C3.61667 7.69999 2.5 8.81665 2.5 10.2C2.5 11.5833 3.61667 12.7 5 12.7C5.65833 12.7 6.25 12.4417 6.7 12.025L12.6333 15.4917C12.5917 15.6667 12.5667 15.85 12.5667 16.0333C12.5667 17.375 13.6583 18.4667 15 18.4667C16.3417 18.4667 17.4333 17.375 17.4333 16.0333C17.4333 14.6917 16.3417 13.6 15 13.6ZM15 3.53332C15.4583 3.53332 15.8333 3.90832 15.8333 4.36665C15.8333 4.82499 15.4583 5.19999 15 5.19999C14.5417 5.19999 14.1667 4.82499 14.1667 4.36665C14.1667 3.90832 14.5417 3.53332 15 3.53332ZM5 11.0333C4.54167 11.0333 4.16667 10.6583 4.16667 10.2C4.16667 9.74165 4.54167 9.36665 5 9.36665C5.45833 9.36665 5.83333 9.74165 5.83333 10.2C5.83333 10.6583 5.45833 11.0333 5 11.0333ZM15 16.8833C14.5417 16.8833 14.1667 16.5083 14.1667 16.05C14.1667 15.5917 14.5417 15.2167 15 15.2167C15.4583 15.2167 15.8333 15.5917 15.8333 16.05C15.8333 16.5083 15.4583 16.8833 15 16.8833Z" fill="#5C5C5C"/>
</svg>
