<svg width="27" height="28" viewBox="0 0 27 28" fill="none" xmlns="http://www.w3.org/2000/svg">
<path d="M19.2361 10.7222V9.13889C19.2361 8.375 18.6111 7.75 17.8472 7.75H8.12497C7.35414 7.75 6.73608 8.375 6.73608 9.13889V18.8611C6.73608 19.625 7.35414 20.25 8.12497 20.25H17.8472C18.6111 20.25 19.2361 19.625 19.2361 18.8611V17.2778C19.6458 17.0347 19.9305 16.5972 19.9305 16.0833V11.9167C19.9305 11.4028 19.6458 10.9653 19.2361 10.7222ZM18.5416 11.9167V16.0833H13.6805V11.9167H18.5416ZM8.12497 18.8611V9.13889H17.8472V10.5278H13.6805C12.9166 10.5278 12.2916 11.1528 12.2916 11.9167V16.0833C12.2916 16.8472 12.9166 17.4722 13.6805 17.4722H17.8472V18.8611H8.12497Z" fill="#5C5C5C"/>
<path d="M15.7639 15.0417C16.3392 15.0417 16.8055 14.5753 16.8055 14C16.8055 13.4247 16.3392 12.9583 15.7639 12.9583C15.1886 12.9583 14.7222 13.4247 14.7222 14C14.7222 14.5753 15.1886 15.0417 15.7639 15.0417Z" fill="#5C5C5C"/>
</svg>
